
  <svg width="160.5" height="48" viewBox="0 0 856 256" fill="none" xmlns="http://www.w3.org/2000/svg" xmlns:xlink="http://www.w3.org/1999/xlink" version="1.1">
    
        <g transform="translate(0, 0)">
          <svg width="256" height="256" viewBox="0 0 256 256" fill="none" xmlns="http://www.w3.org/2000/svg">
<g clip-path="url(#clip0_33_893)">
<path d="M196 0H60C26.8629 0 0 26.8629 0 60V196C0 229.137 26.8629 256 60 256H196C229.137 256 256 229.137 256 196V60C256 26.8629 229.137 0 196 0Z" fill="#F4F2ED"/>
<g clip-path="url(#clip1_33_893)">
<mask id="mask0_33_893" style="mask-type:luminance" maskUnits="userSpaceOnUse" x="28" y="28" width="201" height="201">
<path d="M28.0781 28.0781H228.078V228.078H28.0781V28.0781Z" fill="white"/>
</mask>
<g mask="url(#mask0_33_893)">
<path d="M177.336 213.781C176.125 222.922 167.18 230.031 158.313 227.57C145.656 224.094 131.008 218.664 117.844 217.648L97.6486 216.086C94.3916 215.859 91.3323 214.441 89.0548 212.102L54.2892 176.281C52.4243 174.373 51.1772 171.948 50.7104 169.321C50.2436 166.695 50.5787 163.988 51.672 161.555C51.672 161.555 73.1564 114.289 73.9767 111.828C74.7579 109.367 77.7267 87.9219 79.4454 76.4375C79.9142 73.3516 81.3986 70.5781 83.7423 68.5078L124.875 31.4766C126.231 30.2583 127.823 29.3314 129.552 28.7533C131.281 28.1752 133.111 27.9581 134.927 28.1156C136.743 28.273 138.508 28.8016 140.111 29.6687C141.715 30.5357 143.124 31.7228 144.25 33.1563L178.781 77.0625C180.702 79.5758 181.745 82.6496 181.75 85.8125C181.75 94.1328 182.453 111.203 187.063 122.219C191.555 132.883 199.758 144.484 204.055 150.148C204.873 151.208 205.357 152.486 205.448 153.821C205.538 155.157 205.23 156.489 204.563 157.648C198.988 167.003 193.152 176.199 187.063 185.227C181.203 193.938 178.508 204.719 177.297 213.781H177.336Z" fill="#6C31E3"/>
<path d="M92.8047 214.836C108.977 182.023 108.508 158.508 101.633 141.789C95.3047 126.32 83.5469 116.594 74.2891 110.539C74.0547 111.438 73.7813 112.258 73.4297 113.078L51.6719 161.594C50.5736 164.024 50.2322 166.728 50.692 169.354C51.1518 171.981 52.3916 174.408 54.25 176.32L89.0547 212.141C90.1345 213.265 91.4039 214.191 92.8047 214.875V214.836Z" fill="url(#paint0_radial_33_893)"/>
<path d="M136.75 148.234C141.125 148.703 145.422 149.641 149.563 151.203C162.844 156.164 174.953 167.297 184.914 188.82C185.617 187.609 186.32 186.398 187.102 185.227C193.184 176.194 199.02 166.998 204.602 157.648C205.285 156.493 205.602 155.159 205.511 153.82C205.42 152.481 204.926 151.201 204.094 150.148C199.797 144.445 191.594 132.883 187.102 122.219C182.492 111.203 181.828 94.0938 181.789 85.8125C181.789 82.6484 180.774 79.5625 178.82 77.0625L144.25 33.1562C144.062 32.9284 143.867 32.707 143.664 32.4922C145.939 39.3036 146.21 46.6249 144.445 53.5859C142.772 59.2064 140.465 64.6187 137.57 69.7188L134.758 75.2656C130.249 83.8507 127.663 93.3147 127.18 103C126.711 114.484 129.055 128.937 136.75 148.234Z" fill="url(#paint1_radial_33_893)"/>
<path d="M136.75 148.234C129.055 128.937 126.672 114.484 127.18 102.961C127.663 93.2757 130.249 83.8117 134.758 75.2266C135.656 73.3516 136.633 71.5156 137.57 69.7188C140.344 64.2891 143.039 59.1719 144.445 53.5469C146.21 46.5859 145.939 39.2645 143.664 32.4531C141.294 29.8415 137.986 28.2762 134.463 28.1004C130.941 27.9247 127.493 29.1529 124.875 31.5156L83.7031 68.5469C81.4068 70.616 79.9015 73.4194 79.4453 76.4766L74.4453 109.68L74.25 110.578C83.5469 116.633 95.3438 126.359 101.633 141.828C102.933 144.961 103.952 148.203 104.68 151.516C115.617 148.859 126.438 147.219 136.75 148.273V148.234Z" fill="url(#paint2_radial_33_893)"/>
<path d="M158.313 227.609C167.18 230.031 176.125 222.922 177.336 213.781C178.344 205.074 180.911 196.619 184.914 188.82C174.914 167.336 162.844 156.164 149.602 151.203C135.539 145.969 120.227 147.688 104.68 151.477C108.156 167.258 106.086 187.922 92.8047 214.836C94.3672 215.539 95.9688 216.008 97.6875 216.125C97.6875 216.125 107.219 216.906 118.625 217.727C129.953 218.508 146.906 224.406 158.313 227.57V227.609Z" fill="url(#paint3_radial_33_893)"/>
<path fill-rule="evenodd" clip-rule="evenodd" d="M127.258 102.219C126.75 113.625 128.195 126.75 135.891 146.008L133.469 145.812C126.555 125.695 125.07 115.344 125.578 103.781C126.172 93.9407 128.89 84.3456 133.547 75.6562C134.484 73.7422 136.672 70.1484 137.648 68.3125C140.422 62.9609 142.297 60.1094 143.898 55.1875C146.125 48.3516 145.656 45.0703 145.383 41.8672C147.18 53.5469 140.422 63.7422 135.344 74.0547C130.674 82.7458 127.917 92.3353 127.258 102.18V102.219Z" fill="url(#paint4_radial_33_893)"/>
<path fill-rule="evenodd" clip-rule="evenodd" d="M103.898 142.609C104.836 144.719 105.695 146.437 106.242 149.055L104.172 149.484C103.352 146.438 102.687 144.25 101.516 141.672C94.5625 125.266 83.4297 116.828 74.2891 110.617C85.3047 116.555 96.6328 125.852 103.859 142.609H103.898Z" fill="url(#paint5_radial_33_893)"/>
<path fill-rule="evenodd" clip-rule="evenodd" d="M106.359 151.086C110.188 169.055 105.891 191.789 93.2344 213.937C103.82 191.984 108.938 170.93 104.68 151.437L106.359 151.086Z" fill="url(#paint6_radial_33_893)"/>
<path fill-rule="evenodd" clip-rule="evenodd" d="M150.07 149.484C170.812 157.258 178.82 174.328 184.797 188.547C177.375 173.664 167.141 157.18 149.328 151.047C135.734 146.437 124.289 146.984 104.68 151.437L104.25 149.484C125.031 144.758 135.891 144.211 150.07 149.484Z" fill="url(#paint7_radial_33_893)"/>
</g>
</g>
</g>
<defs>
<radialGradient id="paint0_radial_33_893" cx="0" cy="0" r="1" gradientUnits="userSpaceOnUse" gradientTransform="translate(91.0469 211.594) rotate(-104.693) scale(90.8621 60.5417)">
<stop stop-color="white" stop-opacity="0.4"/>
<stop offset="1" stop-opacity="0.1"/>
</radialGradient>
<radialGradient id="paint1_radial_33_893" cx="0" cy="0" r="1" gradientUnits="userSpaceOnUse" gradientTransform="translate(168.625 174.172) rotate(-82.4846) scale(149.33 110.326)">
<stop stop-color="white" stop-opacity="0.6"/>
<stop offset="1" stop-color="white" stop-opacity="0.1"/>
</radialGradient>
<radialGradient id="paint2_radial_33_893" cx="0" cy="0" r="1" gradientUnits="userSpaceOnUse" gradientTransform="translate(96.5156 147.922) rotate(-77.7949) scale(127.491 87.1129)">
<stop stop-color="white" stop-opacity="0.8"/>
<stop offset="1" stop-color="white" stop-opacity="0.4"/>
</radialGradient>
<radialGradient id="paint3_radial_33_893" cx="0" cy="0" r="1" gradientUnits="userSpaceOnUse" gradientTransform="translate(158.977 228.078) rotate(-120.496) scale(73.8942 84.9458)">
<stop stop-color="white" stop-opacity="0.3"/>
<stop offset="1" stop-opacity="0.3"/>
</radialGradient>
<radialGradient id="paint4_radial_33_893" cx="0" cy="0" r="1" gradientUnits="userSpaceOnUse" gradientTransform="translate(149.094 78.0781) rotate(102.236) scale(66.3511 44.7431)">
<stop stop-color="white" stop-opacity="0"/>
<stop offset="1" stop-color="white" stop-opacity="0.2"/>
</radialGradient>
<radialGradient id="paint5_radial_33_893" cx="0" cy="0" r="1" gradientUnits="userSpaceOnUse" gradientTransform="translate(71.3594 114.016) rotate(45.3237) scale(48.8906 104.136)">
<stop stop-color="white" stop-opacity="0.2"/>
<stop offset="1" stop-color="white" stop-opacity="0.4"/>
</radialGradient>
<radialGradient id="paint6_radial_33_893" cx="0" cy="0" r="1" gradientUnits="userSpaceOnUse" gradientTransform="translate(111.984 138.937) rotate(86.0397) scale(50.9028 108.095)">
<stop stop-color="white" stop-opacity="0.2"/>
<stop offset="1" stop-color="white" stop-opacity="0.3"/>
</radialGradient>
<radialGradient id="paint7_radial_33_893" cx="0" cy="0" r="1" gradientUnits="userSpaceOnUse" gradientTransform="translate(184.25 183.938) rotate(-152.289) scale(87.3639 274.845)">
<stop stop-color="white" stop-opacity="0.2"/>
<stop offset="0.5" stop-color="white" stop-opacity="0.2"/>
<stop offset="1" stop-color="white" stop-opacity="0.3"/>
</radialGradient>
<clipPath id="clip0_33_893">
<rect width="256" height="256" fill="white"/>
</clipPath>
<clipPath id="clip1_33_893">
<rect width="200" height="200" fill="white" transform="translate(28 28)"/>
</clipPath>
</defs>
</svg>

        </g>
         
        <g transform="translate(300, 0)">
          <svg width="256" height="256" viewBox="0 0 256 256" fill="none" xmlns="http://www.w3.org/2000/svg">
<g clip-path="url(#clip0_33_865)">
<path d="M196 0H60C26.8629 0 0 26.8629 0 60V196C0 229.137 26.8629 256 60 256H196C229.137 256 256 229.137 256 196V60C256 26.8629 229.137 0 196 0Z" fill="#F4F2ED"/>
<g clip-path="url(#clip1_33_865)">
<path d="M50.5298 47.548L147.362 40.3958C159.257 39.3755 162.313 40.0633 169.792 45.5005L200.702 67.2758C205.8 71.0208 207.498 72.041 207.498 76.1185V195.544C207.498 203.029 204.78 207.456 195.265 208.132L82.8172 214.943C75.6772 215.28 72.277 214.26 68.5372 209.495L45.775 179.895C41.6923 174.448 40 170.37 40 165.603V59.448C40 53.3283 42.7178 48.2253 50.5298 47.548Z" fill="white"/>
<path fill-rule="evenodd" clip-rule="evenodd" d="M147.362 40.3975L50.5298 47.5498C42.7178 48.2253 40 53.33 40 59.448V165.603C40 170.368 41.6923 174.446 45.775 179.895L68.5372 209.493C72.277 214.258 75.6772 215.28 82.8172 214.941L195.267 208.133C204.775 207.456 207.499 203.029 207.499 195.546V76.1203C207.499 72.2528 205.972 71.138 201.474 67.8375L169.792 45.5005C162.314 40.0633 159.257 39.3755 147.362 40.3958V40.3975ZM85.36 74.1655C76.1777 74.7833 74.0952 74.9233 68.8803 70.683L55.6222 60.1375C54.2747 58.7725 54.952 57.0698 58.347 56.7303L151.435 49.928C159.252 49.2455 163.323 51.9703 166.38 54.3503L182.345 65.9178C183.027 66.2625 184.725 68.2978 182.683 68.2978L86.55 74.085L85.36 74.1655ZM74.6553 194.525V93.1425C74.6553 88.715 76.015 86.6728 80.0855 86.3298L190.5 79.8653C194.245 79.5275 195.937 81.9075 195.937 86.328V187.035C195.937 191.463 195.255 195.208 189.142 195.546L83.4823 201.671C77.3695 202.008 74.657 199.973 74.657 194.525H74.6553ZM178.955 98.578C179.633 101.641 178.955 104.703 175.893 105.053L170.8 106.063V180.916C166.378 183.296 162.307 184.655 158.906 184.655C153.468 184.655 152.11 182.952 148.038 177.853L114.736 125.458V176.15L125.271 178.536C125.271 178.536 125.271 184.661 116.771 184.661L93.3382 186.02C92.6558 184.655 93.3382 181.255 95.713 180.578L101.833 178.88V111.855L93.34 111.168C92.6575 108.105 94.355 103.683 99.115 103.34L124.257 101.648L158.907 154.72V107.767L150.075 106.752C149.393 103.002 152.11 100.277 155.505 99.9448L178.955 98.578Z" fill="black"/>
</g>
</g>
<defs>
<clipPath id="clip0_33_865">
<rect width="256" height="256" fill="white"/>
</clipPath>
<clipPath id="clip1_33_865">
<rect width="175" height="175" fill="white" transform="translate(40 40)"/>
</clipPath>
</defs>
</svg>

        </g>
         
        <g transform="translate(600, 0)">
          <svg xmlns="http://www.w3.org/2000/svg" width="256" height="256" fill="none" viewBox="0 0 256 256"><rect width="256" height="256" fill="#F4F2ED" rx="60"/><path fill="#2C2255" d="M83.0442 153.434H52.3774C56.4379 167.363 63.9727 179.848 75.0039 190.879C92.59 208.469 113.737 217.249 138.465 217.249C143.409 217.249 148.198 216.881 152.85 216.18C171.477 213.368 187.784 204.947 201.757 190.879C212.859 179.852 220.447 167.363 224.539 153.434H212.094H193.896H83.0442Z"/><path fill="#2C2255" d="M66.1338 111.782H50.1137C49.5276 115.302 49.1283 118.896 48.947 122.581H67.9873H77.5386H215.405H227.989C227.806 118.896 227.407 115.302 226.815 111.782"/><path fill="#2C2255" d="M48.947 132.609C49.1283 136.295 49.5258 139.889 50.1137 143.407H66.7694H79.3939H214.281H226.819C227.409 139.889 227.812 136.295 227.995 132.609"/><path fill="#2C2255" d="M224.542 101.753C220.454 87.7855 212.864 75.2434 201.756 64.1335C187.82 50.1994 171.559 41.8367 152.993 39.0236C148.297 38.3111 143.46 37.9375 138.465 37.9375C113.736 37.9375 92.5878 46.672 75.0035 64.1335C63.9687 75.2434 56.4302 87.7855 52.3716 101.753"/><path fill="#F7941E" d="M43.6227 127.597C43.6227 80.3004 79.1448 41.0018 125.355 34.0897C124.209 34.0476 123.057 34 121.899 34C70.0422 34 28 75.9067 28 127.597C28 179.29 70.0403 221.193 121.899 221.193C123.061 221.193 124.213 221.15 125.363 221.106C79.1448 214.194 43.6227 174.896 43.6227 127.597Z"/><path fill="url(#paint0_linear_159_857)" d="M199.398 122.579C199.097 118.878 198.475 115.268 197.544 111.781H79.3939C78.4635 115.264 77.8389 118.876 77.5386 122.579H199.398Z"/><path fill="url(#paint1_linear_159_857)" d="M199.398 132.609H77.5403C77.8406 136.31 78.4615 139.918 79.3938 143.407H197.546C198.476 139.92 199.097 136.31 199.398 132.609Z"/><path fill="url(#paint2_linear_159_857)" d="M138.469 188.748C163.006 188.748 184.156 174.291 193.896 153.434H83.0425C92.7824 174.291 113.933 188.748 138.469 188.748Z"/><path fill="#fff" d="M68.509 132.608H77.4541H199.626H215.676H227.868C227.952 131.013 228 129.407 228 127.788C228 126.039 227.936 124.306 227.837 122.577H215.674H199.625H77.4522H67.8753H48.9467C48.8478 124.302 48.7837 126.039 48.7837 127.788C48.7837 129.407 48.8313 131.013 48.9156 132.608H68.509Z"/><path fill="#fff" d="M82.685 101.753H52.3699C51.3736 105.018 50.7307 108.368 50.1135 111.784H65.7271H79.022H197.482H214.258H226.249C225.63 108.372 224.834 105.022 223.839 101.753"/><path fill="#fff" d="M214.733 143.405H197.956H79.4983H66.839H50.1118C50.7125 146.817 51.3957 150.165 52.3756 153.434H83.1576H194.297H212.542H224.425C225.403 150.168 226.193 146.82 226.795 143.405H214.733Z"/><defs><linearGradient id="paint0_linear_159_857" x1="138.467" x2="138.467" y1="229.42" y2="94.558" gradientUnits="userSpaceOnUse"><stop offset=".303" stop-color="#473788"/><stop offset=".872" stop-color="#2C2255"/></linearGradient><linearGradient id="paint1_linear_159_857" x1="138.468" x2="138.468" y1="229.422" y2="94.56" gradientUnits="userSpaceOnUse"><stop offset=".303" stop-color="#473788"/><stop offset=".872" stop-color="#2C2255"/></linearGradient><linearGradient id="paint2_linear_159_857" x1="138.469" x2="138.469" y1="229.417" y2="94.564" gradientUnits="userSpaceOnUse"><stop offset=".303" stop-color="#473788"/><stop offset=".863" stop-color="#2C2255"/></linearGradient></defs></svg>
        </g>
        
  </svg>
  