
  <svg width="498" height="48" viewBox="0 0 2656 256" fill="none" xmlns="http://www.w3.org/2000/svg" xmlns:xlink="http://www.w3.org/1999/xlink" version="1.1">
    
        <g transform="translate(0, 0)">
          <svg xmlns="http://www.w3.org/2000/svg" width="256" height="256" fill="none" viewBox="0 0 256 256"><rect width="256" height="256" fill="#F4F2ED" rx="60"/><path fill="#00D8FF" d="M128.001 146.951C138.305 146.951 146.657 138.598 146.657 128.295C146.657 117.992 138.305 109.639 128.001 109.639C117.698 109.639 109.345 117.992 109.345 128.295C109.345 138.598 117.698 146.951 128.001 146.951Z"/><path fill-rule="evenodd" stroke="#00D8FF" stroke-width="8.911" d="M128.002 90.3633C153.05 90.3633 176.319 93.9575 193.864 99.9976C215.003 107.275 228 118.306 228 128.295C228 138.704 214.226 150.423 191.525 157.944C174.363 163.63 151.779 166.598 128.002 166.598C103.624 166.598 80.5389 163.812 63.1834 157.881C41.2255 150.376 28 138.506 28 128.295C28 118.387 40.4096 107.441 61.2515 100.175C78.8617 94.0353 102.705 90.3633 127.998 90.3633H128.002Z" clip-rule="evenodd"/><path fill-rule="evenodd" stroke="#00D8FF" stroke-width="8.911" d="M94.9811 109.438C107.495 87.7402 122.232 69.3783 136.23 57.1971C153.094 42.5206 169.144 36.7728 177.796 41.7623C186.813 46.9623 190.084 64.7496 185.259 88.1712C181.614 105.879 172.9 126.925 161.021 147.523C148.842 168.641 134.897 187.247 121.09 199.315C103.619 214.587 86.7284 220.114 77.8833 215.013C69.3003 210.067 66.0181 193.846 70.1356 172.161C73.6145 153.838 82.3451 131.349 94.977 109.438L94.9811 109.438Z" clip-rule="evenodd"/><path fill-rule="evenodd" stroke="#00D8FF" stroke-width="8.911" d="M95.0123 147.578C82.4633 125.904 73.9194 103.962 70.3531 85.7517C66.0602 63.8109 69.0954 47.0355 77.7401 42.0315C86.7485 36.8163 103.792 42.866 121.674 58.7437C135.194 70.7479 149.077 88.8052 160.99 109.383C173.204 130.481 182.358 151.856 185.919 169.844C190.425 192.608 186.778 210.001 177.941 215.116C169.367 220.08 153.676 214.825 136.945 200.427C122.809 188.263 107.685 169.468 95.0123 147.578Z" clip-rule="evenodd"/></svg>
        </g>
         
        <g transform="translate(300, 0)">
          <svg xmlns="http://www.w3.org/2000/svg" width="256" height="256" fill="none" viewBox="0 0 256 256"><rect width="256" height="256" fill="#F4F2EE" rx="60"/><path fill="#41B883" d="M182 50H218L128 205.25L38 50H73.55H106.85L128 86L148.7 50H182Z"/><path fill="#41B883" d="M38 50L128 205.25L218 50H182L128 143.15L73.55 50H38Z"/><path fill="#35495E" d="M73.55 50L128 143.6L182 50H148.7L128 86L106.85 50H73.55Z"/></svg>
        </g>
         
        <g transform="translate(600, 0)">
          <svg xmlns="http://www.w3.org/2000/svg" width="256" height="256" fill="none" viewBox="0 0 256 256"><rect width="256" height="256" fill="#F4F2ED" rx="60"/><path fill="#81CD39" d="M119.878 31.1164C124.797 28.3008 131.203 28.2883 136.117 31.1164C160.839 45.0855 185.569 59.0332 210.287 73.0108C214.937 75.6296 218.046 80.8038 217.999 86.1608V170.206C218.034 175.785 214.617 181.083 209.712 183.642C185.071 197.535 160.442 211.444 135.805 225.337C130.786 228.207 124.251 227.986 119.387 224.88C112 220.598 104.6 216.336 97.2121 212.058C95.7022 211.158 94.0004 210.442 92.9345 208.978C93.8766 207.708 95.5618 207.55 96.9309 206.995C100.014 206.014 102.847 204.44 105.679 202.913C106.396 202.423 107.27 202.611 107.957 203.049C114.274 206.671 120.536 210.399 126.874 213.986C128.226 214.767 129.595 213.73 130.751 213.086C154.931 199.419 179.141 185.805 203.318 172.134C204.214 171.703 204.709 170.752 204.636 169.771C204.653 142.046 204.64 114.317 204.645 86.5918C204.747 85.4785 204.103 84.455 203.096 83.999C178.541 70.1702 153.997 56.3205 129.446 42.4882C128.575 41.8893 127.426 41.8878 126.554 42.4837C102.002 56.3205 77.4638 70.1832 52.9124 84.011C51.9092 84.4675 51.236 85.4745 51.3554 86.5918C51.3596 114.317 51.3554 142.046 51.3554 169.775C51.2682 170.756 51.801 171.687 52.6906 172.109C59.2422 175.824 65.8024 179.513 72.3582 183.216C76.0516 185.203 80.5863 186.385 84.6555 184.862C88.2463 183.574 90.7633 179.909 90.6948 176.097C90.7288 148.534 90.6778 120.967 90.7203 93.4078C90.6309 92.1841 91.7912 91.1731 92.981 91.2885C96.1292 91.267 99.281 91.2461 102.429 91.297C103.743 91.267 104.647 92.5847 104.485 93.8174C104.472 121.555 104.519 149.293 104.464 177.03C104.472 184.423 101.435 192.467 94.5973 196.084C86.1737 200.447 75.7619 199.522 67.4399 195.338C60.2355 191.742 53.3603 187.498 46.2838 183.646C41.3661 181.101 37.966 175.782 38.0006 170.207V86.1608C37.949 80.6929 41.1825 75.4248 45.9764 72.8445C70.6133 58.9408 95.2461 45.0261 119.878 31.1164Z"/><path fill="#81CD39" d="M141.372 89.3351C152.117 88.6433 163.62 88.9255 173.289 94.2185C180.776 98.2754 184.926 106.789 185.058 115.106C184.849 116.227 183.676 116.846 182.605 116.769C179.488 116.765 176.369 116.812 173.252 116.748C171.929 116.799 171.161 115.58 170.995 114.411C170.099 110.431 167.928 106.49 164.183 104.57C158.433 101.692 151.767 101.837 145.496 101.897C140.92 102.139 135.998 102.536 132.12 105.227C129.143 107.266 128.239 111.382 129.301 114.697C130.303 117.077 133.05 117.845 135.298 118.553C148.248 121.94 161.97 121.602 174.671 126.059C179.931 127.876 185.075 131.409 186.875 136.915C189.23 144.295 188.198 153.115 182.947 159.039C178.689 163.914 172.488 166.568 166.303 168.009C158.075 169.844 149.536 169.891 141.18 169.076C133.323 168.18 125.146 166.116 119.081 160.763C113.894 156.259 111.361 149.241 111.612 142.469C111.672 141.325 112.811 140.527 113.907 140.621C117.046 140.596 120.186 140.587 123.325 140.626C124.579 140.536 125.509 141.62 125.573 142.802C126.152 146.593 127.577 150.573 130.883 152.82C137.264 156.937 145.271 156.655 152.577 156.77C158.629 156.502 165.424 156.421 170.364 152.42C172.97 150.138 173.742 146.32 173.038 143.036C172.275 140.263 169.374 138.971 166.883 138.126C154.1 134.083 140.224 135.55 127.565 130.977C122.425 129.161 117.455 125.727 115.481 120.447C112.726 112.974 113.988 103.73 119.789 98.0061C125.445 92.312 133.609 90.1192 141.372 89.3346V89.3351"/></svg>
        </g>
         
        <g transform="translate(900, 0)">
          <svg width="256" height="256" viewBox="0 0 256 256" fill="none" xmlns="http://www.w3.org/2000/svg">
<rect width="256" height="256" rx="60" fill="#F4F2ED"/>
<path d="M89.7778 193.926C82.5397 188.233 74.8187 182.775 69.5426 175.089C58.4409 161.535 49.893 145.842 44.0494 129.352C40.5173 118.628 39.3076 107.132 34.7543 96.8229C29.9911 89.3355 35.5705 81.1506 43.772 78.7706C47.4235 78.0698 53.8439 74.6256 46.0938 77.0873C39.1456 82.1851 38.4732 72.46 45.598 71.8441C50.4604 71.1978 52.2503 67.2173 50.5875 63.634C45.368 60.2303 63.2441 56.4895 54.2496 51.4107C44.8797 41.3017 67.356 39.3557 61.8107 50.8365C60.4834 59.6647 77.5161 49.2184 73.5641 59.4131C77.5809 64.3089 88.6059 60.5274 88.3324 67.3958C94.1838 67.798 96.192 72.7214 101.685 73.0993C107.378 75.6702 117.698 77.6961 119.635 84.1113C113.987 88.5828 100.909 74.875 100.28 87.2525C101.986 105.537 101.552 124.373 108.242 141.785C111.406 152.328 119.077 160.628 126.004 168.839C132.633 176.881 141.611 182.543 150.762 187.31C158.79 191.096 167.444 193.607 176.193 195.182C179.741 192.468 186.006 182.378 191.542 186.633C191.804 191.414 180.555 196.627 191.012 196.098C197.153 194.246 201.412 200.848 206.469 194.893C211.128 200.411 225.833 191.367 222.518 202.647C218.036 205.539 211.498 203.791 207.009 207.769C199.606 204.072 193.713 211.078 185.518 210.192C176.417 211.822 167.158 212.48 157.931 212.494C142.794 211.298 127.336 210.794 112.936 205.524C104.824 203.167 96.9075 198.547 89.7778 193.926V193.926ZM102.562 199.465C110.483 202.891 118.229 206.501 126.91 207.59C140.683 209.506 154.906 212.452 168.728 209.765C162.472 206.94 156.005 210.865 149.772 207.745C142.298 209.353 134.276 207.335 126.678 206.341C118.036 202.492 108.711 199.846 100.619 194.849C90.5074 191.156 105.848 199.586 108.579 200.268C114.9 203.856 101.628 198.429 99.7569 196.938C94.4627 193.968 93.788 194.589 99.2327 197.605C100.329 198.246 101.413 198.919 102.562 199.465V199.465ZM87.4891 188.813C95.165 191.657 87.4552 183.416 83.9378 183.894C82.3794 181.191 77.9838 179.483 81.0845 178.03C75.507 179.967 75.2418 170.667 72.6201 171.996C66.7196 170.133 70.3236 163.532 63.2951 159.479C62.6535 155.208 56.3119 151.504 54.2892 145.062C53.3959 141.764 47.1246 132.292 50.977 141.107C54.2572 149.593 60.0284 156.86 64.8312 164.118C68.5605 171.029 72.9641 178.252 79.7559 182.564C82.0454 184.76 84.2559 188.125 87.4891 188.813ZM65.3763 164.535C65.6442 163.376 66.7801 167.044 65.3763 164.535V164.535ZM96.6817 192.222C98.3815 191.461 94.2375 191.263 96.6817 192.222V192.222ZM100.849 193.742C100.417 191.643 98.9464 194.915 100.849 193.742V193.742ZM106.064 195.917C108.547 193.553 102.237 194.427 106.064 195.917V195.917ZM115.004 200.9C116.513 198.669 110.174 200.058 115.004 200.9V200.9ZM97.8376 188.933C101.694 186.438 92.8561 188.899 97.8376 188.933V188.933ZM101.75 190.884C101.641 189.565 100.356 191.475 101.75 190.884V190.884ZM121.306 203.09C124.449 205.074 139.663 207.438 130.137 203.903C128.543 204.239 112.472 199.358 121.306 203.09ZM90.2609 178.911C89.9552 177.588 85.3813 177.451 90.2609 178.911V178.911ZM99.3646 184.217C101.734 182.565 94.4471 182.942 99.3646 184.217V184.217ZM107.022 188.912C110.422 187.63 101.507 187.624 107.022 188.912V188.912ZM86.5564 174.877C90.2453 177.706 101.433 175.239 92.2057 173.188C88.0058 170.949 78.5402 169.417 84.9922 174.538L86.5564 174.877L86.5564 174.877ZM112.209 190.533C113.745 187.915 105.765 189.038 112.209 190.533V190.533ZM104.414 184.338C113.434 186.89 96.8286 178.634 102.188 183.399L103.376 183.937L104.414 184.338L104.414 184.338ZM120.042 193.371C128.585 193.453 112.326 192.193 120.042 193.371V193.371ZM83.2695 169.934C82.9359 168.343 81.1614 170.068 83.2695 169.934V169.934ZM134.492 201.477C134.72 198.603 131.705 203.615 134.492 201.477V201.477ZM97.8478 178.862C97.3311 177.349 95.1786 178.8 97.8478 178.862V178.862ZM84.0797 168.936C88.984 168.641 77.3653 166.775 84.0797 168.936V168.936ZM67.7695 158.393C67.1591 156.042 62.4328 154.167 67.7695 158.393V158.393ZM110.588 185.567C109.689 184.542 110.165 185.791 110.588 185.567V185.567ZM137.239 201.922C137.154 200.356 135.788 202.514 137.239 201.922V201.922ZM108.229 183.131C108.709 181.114 104.047 182.52 108.229 183.131V183.131ZM88.374 170.548C92.0226 170.157 82.5292 168.081 88.374 170.548V170.548ZM121.96 191.418C127.646 189.165 116.419 190.318 121.96 191.418V191.418ZM104.49 179.559C111.043 180.404 96.6934 175.102 103.052 179.084L104.49 179.559L104.49 179.559V179.559ZM127.264 193.562C133.382 189.904 131.365 202.126 137.644 194.594C143.837 190.072 132.295 200.185 139.928 195.401C145.448 191.709 153.601 197.151 158.752 198.926C162.456 198.744 166.056 202.129 169.854 200.07C177.163 198.101 155.56 197.15 161.223 193.657C154.534 195.603 149.593 191.336 146.302 187.052C138.799 185.319 130.125 181.484 126.381 174.845C124.854 172.352 128.586 175.196 125.063 171.121C120.542 167.1 118.285 162.536 115.25 157.648C111.624 155.714 111.202 150.021 110.836 157.457C110.864 152.764 106.458 149.605 105.383 150.918C105.364 146.399 110.098 148.664 106.784 145.32C106.071 140.636 103.722 135.754 103.016 130.465C101.919 127.916 102.861 122.456 99.2719 128.227C97.9643 134.327 98.8379 120.732 100.871 125.215C103.541 120.64 99.9132 121.178 99.7646 121.813C101.503 117.954 100.865 112.479 99.311 114.567C100.237 110.476 100.775 99.5116 97.9243 101.455C99.6521 97.1768 101.201 81.88 93.7005 87.7122C90.6607 87.7549 85.3966 88.8156 82.9083 90.0531C90.7102 94.3538 82.1235 91.6063 78.9476 90.9227C78.5338 94.9021 75.3881 93.181 71.4582 93.22C77.7352 93.9966 68.4016 99.6398 64.8007 97.4478C60.1241 99.6829 68.8367 105.262 64.8945 106.987C65.379 109.588 57.73 106.048 58.3307 112.054C53.7907 110.144 57.7056 119.178 59.9769 116.123C67.6987 118.213 65.4129 122.977 65.6095 127.503C64.3514 130.141 59.3979 121.304 64.5063 121.714C60.4762 115.167 60.0483 119.347 56.6994 122.389C55.9203 122.609 65.2417 126.716 59.392 128.747C64.5385 129.541 64.6849 134.044 65.7326 136.894C68.8259 140.116 68.1928 133.337 71.8941 137.208C69.5519 133.759 59.4879 127.489 67.5908 129.5C67.5475 126.028 66.1253 123.229 68.6078 123.297C71.0662 118.845 66.0331 134.274 71.5744 128.616C73.1083 127.946 73.4883 124.158 76.2455 128.973C80.2501 132.913 77.692 135.768 72.0429 132.16C73.0536 135.589 79.5999 136.814 78.3697 142.176C79.6738 146.891 81.4985 145.155 83.0889 144.882C84.3365 149.464 85.045 146.095 85.1042 143.914C90.8167 145.137 89.4786 148.514 91.266 150.873C95.2024 152.65 85.6317 138.829 92.3898 146.717C99.5 153.137 95.0564 155.817 88.6756 154.788C92.7141 154.462 94.0165 160.248 99.0679 160.045C103.674 162.236 106.793 170.653 98.8531 167.149C96.0992 164.666 86.3536 161.603 94.3135 166.326C101.665 169.73 107.504 171.767 114.595 176.04C119.669 179.663 121.861 183.812 123.785 184.633C119.52 186.67 110.932 183.007 117.309 181.884C113.332 181.16 108.858 179.148 112.668 184.104C115.907 186.809 124.145 186.522 125.622 186.828C124.37 189.587 122.222 189.806 125.673 190.02C121.823 192.072 126.907 192.389 127.264 193.562H127.264ZM119.391 171.328C117.048 168.878 116.443 164.289 118.975 168.282C120.273 168.803 123.135 175.78 119.391 171.328H119.391ZM145.032 187.615C146.493 187.52 145.074 188.725 145.032 187.615V187.615ZM115.692 165.321C115.602 161.617 116.539 168.177 115.692 165.321V165.321ZM113.144 161.892C110.197 156.199 116.858 163.504 113.144 161.892V161.892ZM82.2613 140.577C83.9924 140.115 83.113 143.538 82.2613 140.577V140.577ZM106.84 153.899C107.903 149.907 108.089 157.249 106.84 153.899V153.899ZM89.4758 141.826C88.2518 139.623 92.0362 143.892 89.4758 141.826V141.826ZM104.378 146.603C101.586 140.348 106.354 143.186 104.995 147.628L104.378 146.603ZM78.6793 129.464C77.4313 127.413 75.3669 121.392 76.0315 119.554C76.6327 122.547 82.3966 132.435 78.8588 123.65C74.9493 116.286 83.5321 126.041 84.415 127.877C84.8261 129.705 82.0029 127.378 83.9158 131.663C80.4273 126.785 81.8564 134.357 78.6793 129.464V129.464ZM70.7371 123.992C71.064 119.221 72.5552 127.263 70.7371 123.992V123.992ZM74.3096 125.221C76.0143 121.621 77.2002 130.241 74.3096 125.221V125.221ZM65.7158 118.573C62.7589 115.635 60.6191 112.927 65.8542 116.75C67.8713 116.829 61.3725 110.59 66.34 114.769C71.5634 115.721 68.9193 123.333 65.7158 118.573ZM70.23 118.455C71.9472 116.754 71.1416 120.131 70.23 118.455V118.455ZM73.0076 119.346C70.4043 114.466 76.1672 121.392 73.0076 119.346V119.346ZM67.4859 114.069C58.8899 106.419 78.2873 118.069 68.8902 115.487L67.4858 114.069L67.4859 114.069V114.069ZM92.1147 128.379C88.3949 126.149 91.1289 112.677 92.3975 121.891C96.0137 120.721 92.1978 126.649 94.895 126.594C94.47 130.334 93.2633 131.679 92.1147 128.379ZM101.224 133.763C101.589 129.703 101.992 136.539 101.224 133.763V133.763ZM99.642 132.199C100.052 130.465 99.6844 134.242 99.642 132.199V132.199ZM69.1721 111.555C63.6498 103.936 85.2215 119.262 72.7091 113.488C71.4016 113.146 69.8285 113.024 69.1721 111.555ZM86.7142 120.856C86.1916 114.441 87.8813 121.919 86.714 120.856L86.7142 120.856ZM100.033 129.4C101.063 125.745 100.11 131.817 100.033 129.4V129.4ZM70.0181 108.647C73.3002 107.945 83.6198 114.412 74.1431 110.494C73.0902 109.329 70.8454 109.858 70.0181 108.647ZM98.2029 122.695C98.5537 116.135 100.162 118.776 98.215 123.634L98.203 122.695L98.2029 122.695H98.2029ZM72.4613 106.365C73.7986 104.403 68.9113 97.4957 73.1657 103.887C75.0041 105.348 78.4884 106.334 75.4121 106.949C80.2503 111.217 74.232 108.105 72.4613 106.365V106.365ZM96.8088 120.646C97.7327 113.173 97.6236 125.024 96.8088 120.646V120.646ZM69.6683 99.4626C70.6897 99.0261 70.2077 100.824 69.6683 99.4626V99.4626ZM76.0192 103.243C77.6536 99.813 79.0343 107.068 76.0192 103.243V103.243ZM93.9334 113.208C93.9161 111.891 94.2714 115.124 93.9334 113.208V113.208ZM92.8957 110.911C90.4093 104.777 95.2085 114.159 92.8957 110.911V110.911ZM91.369 106.889C90.9517 104.354 92.7875 110.073 91.369 106.889L91.369 106.889ZM93.8536 102.85C92.1474 99.8432 96.0083 89.5998 96.4391 95.9527C94.6382 100.903 95.9196 103.672 97.1759 97.0325C99.4959 91.8072 96.6747 107.344 93.8536 102.85L93.8536 102.85V102.85ZM96.407 87.6163C97.1507 86.703 96.572 88.7167 96.407 87.6163V87.6163ZM92.1429 171.638C91.1316 170.755 92.27 172.2 92.1429 171.638V171.638ZM100.927 176.082C105.813 177.335 105.788 175.321 101.372 174.723C98.9969 172.513 91.5019 170.17 98.2103 174.449C98.6546 175.574 100.058 175.548 100.927 176.082V176.082ZM83.5787 164.559C86.2706 166.566 93.7181 170.248 87.4135 165.323C89.5391 162.853 83.345 161.539 85.3997 159.887C80.1734 156.689 81.2769 156.973 84.9384 157.074C78.6574 154.266 85.8451 154.476 85.5066 153.038C83.0847 152.559 73.4769 148.767 79.1291 153.349C73.3833 150.42 77.7599 154.441 76.0232 154.016C70.1477 152.413 81.2557 158.49 75.0901 156.982C78.4608 159.653 84.163 163.824 76.5152 159.809C75.5075 161.259 81.988 163.458 83.5787 164.559ZM92.7659 169.837C103.937 173.436 87.2893 165.439 92.7659 169.837V169.837ZM139.795 198.327C139.939 196.111 138.269 200.218 139.795 198.327V198.327ZM144.629 200.362C147.206 197.864 144.734 204.34 148.9 199.75C148.945 196.465 148.771 194.524 144.113 198.515C142.829 199.227 142.256 202.255 144.629 200.362V200.362ZM67.8987 152.174C67.1072 149.062 62.3506 149.078 67.8987 152.174V152.174ZM73.0602 155.556C71.1435 152.378 66.2214 152.679 73.0602 155.556V155.556ZM102.424 173.265C105.291 175.811 115.592 175.133 105.907 173.578C104.472 171.457 96.798 171.968 102.424 173.265ZM142.791 198.194C147.203 194.492 138.515 199.846 142.791 198.194V198.194ZM151.967 204.5C151.995 203.312 150.066 205.021 151.967 204.5V204.5ZM151.982 202.837C156.868 197.66 147.247 203.143 151.982 202.837H151.982ZM55.2036 141.545C51.039 135.603 52.6148 132.932 48.5987 128.081C47.8384 124.371 41.7091 115.951 45.4285 124.871C48.8352 130.087 49.8476 138.164 55.2036 141.545V141.545ZM150.449 201.191C159.438 195.381 146.759 198.66 150.449 201.191V201.191ZM157.311 203.88C161.813 200.014 154.464 203.071 157.311 203.88V203.88ZM66.3687 145.606C67.6571 143.689 63.0414 145.36 66.3687 145.606V145.606ZM155.878 202.044C160.237 199.234 154.874 199.665 155.088 202.303L155.878 202.044H155.878ZM96.7253 164.76C96.5755 162.862 94.4236 164.921 96.7253 164.76V164.76ZM100.381 166.863C99.2191 164.514 98.5947 167.232 100.381 166.863V166.863ZM162.872 203.943C168.456 199.915 159.487 203.172 161.7 204.706L162.872 203.943ZM160.734 202.91C165.283 199.098 155.931 204.599 160.734 202.91V202.91ZM171.659 210.185C174.713 208.14 167.948 209.523 171.659 210.185V210.185ZM69.1698 144.223C73.2638 145.141 85.5304 154.306 78.2936 144.857C74.5872 143.76 76.8101 134.7 73.0295 136.304C75.567 140.543 75.1172 142.347 69.7896 139.675C63.0937 136.406 66.0267 141.294 67.3353 142.642C65.552 143.047 69.6942 144.189 69.1698 144.223V144.223ZM50.5177 129.493C51.2506 126.462 43.7691 112.816 46.9848 122.656C48.1456 124.717 48.0276 128.623 50.5177 129.493ZM84.7523 150.599C82.6442 148.836 84.6521 150.35 84.7523 150.599V150.599ZM89.9437 151.808C89.941 148.596 84.2054 150.504 89.9437 151.808V151.808ZM134.931 180.168C134.073 177.974 131.539 180.117 134.931 180.168L134.931 180.168ZM137.091 181.746C136.772 180.518 135.845 181.983 137.091 181.746V181.746ZM154.922 192.977C156.637 191.71 152.782 192.816 154.922 192.977V192.977ZM59.8346 131.872C64.7399 129.972 54.5789 130.517 59.8346 131.872V131.872ZM130.97 176.688C130.916 173.512 127.843 177.475 130.97 176.688V176.688ZM57.8965 127.355C61.0474 126.291 54.9816 126.654 57.8965 127.355V127.355ZM67.0422 131.786C66.9851 130.742 66.0748 132.181 67.0422 131.786V131.786ZM178.593 200.19C182.645 199.369 191.878 202.252 193.371 199.116C188.45 198.996 176.347 195.644 175.774 199.916L176.852 200.085L178.593 200.19V200.19ZM69.949 132.518C70.0194 129.3 67.4396 132.398 69.949 132.518V132.518ZM45.9025 115.838C44.8104 109.706 41.749 114.91 45.9025 115.838V115.838ZM51.6367 117.279C51.7071 115.31 46.3882 115.507 51.6367 117.279V117.279ZM54.9136 118.888C53.9664 118.121 54.1722 119.858 54.9136 118.888V118.888ZM75.5326 132.115C76.5033 131.224 73.2345 131.455 75.5326 132.115V132.115ZM52.731 115.259C52.1768 110.628 46.0896 114.565 52.731 115.259V115.259ZM40.975 107.631C40.8078 105.493 39.8294 108.437 40.975 107.631V107.631ZM42.7237 106.31C42.4384 103.776 41.2223 106.632 42.7237 106.31V106.31ZM52.3855 112.077C56.4711 110.472 44.9437 108.758 51.5507 111.774L52.3855 112.077ZM181.694 191.949C184.309 189.552 178.371 191.208 181.694 191.949V191.949ZM197.316 200.047C198.364 196.947 194.677 200.455 197.316 200.047V200.047ZM53.3729 107.013C53.8033 104.015 50.1339 107.608 53.3729 107.013V107.013ZM39.6265 97.8031C38.888 93.5698 38.989 86.1392 46.0524 88.6503C36.6239 90.5222 52.5779 100.369 50.5632 92.5946C54.5277 92.7887 58.3186 90.2516 56.2381 94.1018C64.0492 93.2391 69.4646 86.4658 77.0096 87.4149C82.8868 86.6372 89.3127 86.0473 95.6461 83.6816C100.853 83.3064 105.866 77.7 103.012 74.3769C95.9106 73.7761 88.4772 74.6646 80.6283 76.2247C71.9308 78.0327 64.0306 81.468 55.255 82.9425C46.7013 84.0916 56.9755 86.1084 54.5253 86.5577C50.0619 88.1064 59.8484 89.1507 53.9467 90.7834C50.3019 90.0904 46.5082 88.838 48.0651 84.9971C39.8714 86.0604 32.6715 89.461 39.145 97.7992L39.6265 97.8029L39.6265 97.8026V97.8031ZM59.3703 87.7476C61.2914 80.6703 69.6628 93.5714 62.5192 88.6876C61.6659 88.0491 60.2626 87.5281 59.3703 87.7476ZM59.7441 84.3163C62.5168 82.2507 61.218 85.4744 59.7441 84.3163V84.3163ZM63.2648 84.3722C63.5151 81.1156 71.3244 86.0963 64.5525 85.5446L63.2648 84.3722ZM68.0809 82.4358C69.8396 80.3808 68.5864 84.2637 68.0809 82.4358V82.4358ZM69.3129 81.6108C72.2414 78.0921 85.8973 79.3651 75.9017 81.2677C73.2225 79.2507 71.1688 82.457 69.3129 81.6108ZM87.1342 78.8637C86.6887 69.2521 95.988 82.2793 87.1342 78.8637V78.8637ZM92.1909 78.836C94.0397 73.9917 99.3652 76.8921 93.0464 77.8626C93.1836 78.3781 92.8611 80.3635 92.1909 78.836ZM51.3789 104.527C56.9028 101.144 45.5148 101.592 51.3789 104.527V104.527ZM55.4632 105.661C57.3999 103.602 51.255 104.826 55.4632 105.661V105.661ZM43.429 97.1207C46.5853 94.696 39.6939 96.1988 43.429 97.1207V97.1207ZM206.536 199.161C206.628 196.348 204.124 200.428 206.536 199.161V199.161ZM189.963 187.85C190.434 184.612 187.833 188.133 189.963 187.85V187.85ZM211.094 200.251C215.507 200.266 224.465 198.881 214.863 198.885C213.356 199.12 206.084 199.07 211.094 200.251L211.094 200.251V200.251ZM59.0559 103.676C62.6273 103.431 64.6436 99.7368 58.3651 99.9491C48.6345 98.9417 66.9503 103.281 57.1169 102.04C55.7955 102.915 58.9791 103.918 59.0559 103.676ZM62.2013 105.268C61.8284 102.975 61.0969 106.487 62.2013 105.268V105.268ZM65.9324 95.3192C67.4823 93.3969 63.7878 94.8053 65.9324 95.3192V95.3192ZM54.0548 75.4651C60.4288 73.2967 69.1451 70.8601 72.1547 76.5327C69.0918 72.8463 70.9186 69.2172 73.8115 74.6071C77.9022 80.0605 79.95 72.1267 77.2894 70.2976C80.3214 74.0648 83.7699 75.845 79.3194 70.5357C84.1556 64.7182 69.6358 71.2975 66.3356 71.2312C64.7477 71.9439 49.942 75.0071 54.0548 75.4651V75.4651ZM57.7903 68.3109C61.4254 65.5672 70.3626 69.9429 64.6277 65.5842C64.067 65.0889 52.0682 68.8895 57.7903 68.3109V68.3109ZM71.0429 68.858C75.2974 68.9666 69.2078 63.1426 74.2775 65.7816C73.4449 63.0616 68.375 62.5524 65.8963 61.4656C64.4944 63.9525 68.7499 68.8914 71.0429 68.858ZM60.1141 56.8279C61.5859 54.8327 57.5346 57.8395 60.1141 56.8279V56.8279ZM65.5306 58.1244C72.3867 57.215 63.783 55.1719 64.1491 58.0513L65.5306 58.1244V58.1244V58.1244ZM55.4168 50.2106C50.5894 43.9088 64.4954 51.2699 59.5908 44.6717C55.4627 41.3845 51.4959 48.3709 55.4168 50.2106ZM117.369 83.5798C119.583 79.6548 108.228 78.2891 115.877 82.1887C116.582 82.4241 116.422 83.8513 117.369 83.5798Z" fill="black"/>
</svg>

        </g>
         
        <g transform="translate(1200, 0)">
          <svg width="256" height="256" viewBox="0 0 256 256" fill="none" xmlns="http://www.w3.org/2000/svg">
<rect width="256" height="256" rx="60" fill="url(#paint0_linear_7_245)"/>
<path d="M79.2383 68.7408C69.2524 83.3576 70.4962 102.373 78.1042 117.886L78.6637 118.991L79.0417 119.691C79.1117 119.827 79.1929 119.961 79.2648 120.093C79.3971 120.339 79.5294 120.575 79.6428 120.817L80.3705 122.089L80.7864 122.789L81.6313 124.135L82.0093 124.702C82.3874 125.307 82.8145 125.908 83.2342 126.501C83.2436 126.516 83.2568 126.533 83.2682 126.548C83.3343 126.643 83.4081 126.737 83.4572 126.832C83.8201 127.342 84.2133 127.845 84.5913 128.344L85.0109 128.888L86.0411 130.178L86.4343 130.658C86.9028 131.223 87.3817 131.781 87.8708 132.329L87.901 132.359C87.9199 132.383 87.9388 132.397 87.9577 132.421C88.4316 132.956 88.9181 133.479 89.417 133.99L89.8857 134.47L91.052 135.635L91.5283 136.096C92.0524 136.598 92.5849 137.091 93.1255 137.576L93.4279 137.84L94.8777 139.088L95.4788 139.576L96.6885 140.521L97.335 141.022L99.1836 142.373C99.2308 142.405 99.2724 142.439 99.3197 142.471C99.7544 142.774 100.195 143.067 100.637 143.36L101.208 143.747L103.272 145.033L103.843 145.36L105.393 146.244C105.676 146.399 105.966 146.547 106.249 146.694L107.357 147.261L107.612 147.386L108.066 147.609L109.823 148.437L110.196 148.626C110.874 148.927 111.557 149.216 112.245 149.493L112.744 149.694L114.677 150.423L114.919 150.51C115.633 150.762 116.352 151.002 117.074 151.229L117.594 151.387C118.35 151.614 119.059 151.885 119.819 152.03C168.109 161.02 182.14 122.494 182.14 122.494C170.359 138.126 149.447 142.246 129.635 137.659C128.884 137.47 128.156 137.249 127.423 137.028L126.871 136.839C126.157 136.616 125.446 136.379 124.743 136.134L124.45 136.026C123.821 135.799 123.195 135.563 122.573 135.317L122.044 135.105C121.363 134.832 120.687 134.546 120.017 134.247L119.613 134.066L117.904 133.253L117.413 133.011C116.969 132.788 116.528 132.559 116.089 132.325L115.207 131.852C114.673 131.56 114.145 131.258 113.623 130.947L113.088 130.644C112.392 130.229 111.704 129.794 111.024 129.359C110.835 129.236 110.653 129.106 110.466 128.981L108.997 127.987L108.525 127.647L107.136 126.626L106.519 126.153L105.266 125.155L104.707 124.702L103.147 123.379C103.094 123.331 103.034 123.284 102.958 123.233C102.403 122.736 101.856 122.226 101.318 121.713L100.856 121.26L99.6769 120.084L99.2157 119.611C98.7244 119.101 98.2424 118.582 97.7697 118.054C97.747 118.027 97.7206 118.003 97.6979 117.978C97.1983 117.421 96.7093 116.853 96.2311 116.277L95.8474 115.812L94.7889 114.483L94.4014 113.992L93.1822 112.338C82.1813 97.0558 78.2497 75.9802 87.0202 58.6699L79.2383 68.7408ZM110.237 56.4244C103.017 67.0094 103.408 81.1745 109.041 92.3682C109.983 94.2477 111.05 96.062 112.235 97.7987C113.317 99.377 114.517 101.258 115.953 102.524C116.473 103.091 117.017 103.658 117.573 104.237C117.713 104.382 117.857 104.52 118 104.666C118.54 105.201 119.092 105.724 119.656 106.233C119.679 106.252 119.7 106.274 119.724 106.293C120.36 106.858 121.009 107.406 121.673 107.938L122.112 108.285C122.772 108.805 123.447 109.306 124.134 109.79C124.152 109.805 124.171 109.82 124.191 109.834C124.493 110.047 124.805 110.249 125.113 110.453C125.261 110.552 125.4 110.656 125.548 110.748C126.041 111.071 126.541 111.383 127.047 111.684L127.259 111.809L128.582 112.565C128.737 112.654 128.895 112.731 129.054 112.814L129.999 113.302C130.047 113.327 130.094 113.345 130.139 113.368C130.776 113.689 131.417 113.992 132.073 114.285C132.213 114.347 132.356 114.404 132.5 114.464C133.024 114.691 133.553 114.911 134.088 115.12L134.768 115.374C135.251 115.553 135.736 115.725 136.224 115.89L136.881 116.103C137.575 116.324 138.261 116.6 138.985 116.723C176.269 123.014 184.879 93.7764 184.879 93.7764C177.12 105.155 162.095 110.588 146.058 106.35C145.349 106.161 144.645 105.953 143.947 105.726C143.733 105.66 143.524 105.59 143.312 105.537C142.817 105.374 142.325 105.201 141.836 105.019L141.168 104.766C140.633 104.577 140.104 104.341 139.581 104.114C139.437 104.051 139.293 103.995 139.152 103.929C138.494 103.641 137.845 103.334 137.205 103.008C136.876 102.844 136.553 102.672 136.229 102.501L135.666 102.207C135.25 101.978 134.839 101.742 134.432 101.498L134.137 101.309C133.634 101.008 133.136 100.698 132.644 100.379C132.492 100.28 132.345 100.19 132.194 100.073L131.226 99.4205C130.542 98.9365 129.871 98.4361 129.211 97.9196L128.757 97.5567C121.739 91.9126 116.174 84.2007 113.53 75.4548C110.757 66.3819 111.356 56.2032 116.176 47.9412L110.237 56.4244ZM136.303 47.2229C132.046 53.6042 131.629 61.5279 134.602 68.5745C137.717 76.054 144.1 81.923 151.549 84.7035C151.856 84.8206 152.164 84.9246 152.494 85.0305L152.903 85.1628C153.341 85.3026 153.778 85.4652 154.23 85.5521C174.818 89.6028 180.401 74.7932 181.887 72.6138C176.995 79.7871 168.775 81.509 158.689 79.0159C157.895 78.8174 157.016 78.5244 156.231 78.2485C155.244 77.8913 154.277 77.4819 153.334 77.0217C151.539 76.1415 149.837 75.0834 148.253 73.8632C139.208 66.8884 133.6 53.5853 139.49 42.7507" fill="white"/>
<path d="M90.8364 182.681L89.4415 187.626L90.8364 182.683V182.681ZM98.0116 193.414L96.4749 193.404L98.0116 193.414ZM97.6336 200.797L88.4246 200.831L97.6336 200.797ZM99.5615 193.425L98.0229 193.416L99.5615 193.425ZM98.4615 200.169L100.068 194.051L98.4615 200.169ZM132.353 171.992L129.366 186.042L132.353 171.992ZM124.669 171.992L122.401 182.489L124.669 171.992Z" fill="white"/>
<path d="M131.823 171.359H125.434C125.079 171.359 124.727 171.643 124.652 171.99L120.115 192.985C120.04 193.331 119.688 193.614 119.335 193.614H114.812C110.336 193.614 110.854 190.52 111.787 186.28L111.816 186.152L112.358 183.26L112.592 182.069L114.657 171.99C114.728 171.643 114.496 171.357 114.141 171.357H107.582C107.401 171.363 107.227 171.428 107.086 171.542C106.946 171.656 106.846 171.813 106.803 171.988L103.848 186.002C102.223 193.419 102.654 200.493 111.485 200.714L111.74 200.719H125.599C125.954 200.719 126.304 200.436 126.38 200.088L132.356 171.988C132.432 171.641 132.199 171.357 131.846 171.357L131.823 171.359ZM157.316 193.688C157.672 193.688 157.883 193.971 157.832 194.319L157.212 197.353L157.316 193.688ZM156.592 200.389L157.212 197.353L156.592 200.389ZM155.814 201.027L144.038 201.084L155.814 201.027Z" fill="white"/>
<path d="M140.223 189.783C140.218 189.45 140.596 188.879 140.951 188.879L140.153 188.866C139.775 192.484 140.223 189.783 140.223 189.783ZM144.62 201.082H144.497H144.62ZM157.316 193.688C157.672 193.688 157.883 193.971 157.832 194.319L157.11 197.846L157.316 193.688ZM147.644 201.092H147.618H147.644ZM146.075 201.08H145.985H146.075ZM145.597 201.082H145.446H145.597ZM145.13 201.082H144.998H145.13ZM146.003 201.08H145.616H146.003Z" fill="white"/>
<path d="M147.62 201.092L146.077 201.097L147.62 201.092ZM155.817 201.044L147.642 201.094L155.817 201.044ZM156.573 200.389L157.093 197.848L156.573 200.39V200.389ZM145.429 201.082H145.13H145.467H145.429ZM144.493 201.082H144.04H144.493ZM144.979 201.082H144.601H144.979ZM51.4903 189.858L52.4827 185.458L51.3486 190.486L51.2163 191.117L51.4922 189.855L51.4903 189.858ZM63.3721 171.287H56.3538C56.1724 171.294 55.9981 171.359 55.8563 171.473C55.7145 171.586 55.6126 171.741 55.5656 171.917L54.2349 177.776C54.2125 177.852 54.2088 177.932 54.224 178.01C54.2392 178.087 54.2729 178.16 54.3223 178.222C54.3716 178.284 54.4352 178.333 54.5075 178.365C54.5798 178.397 54.6588 178.411 54.7377 178.406H61.8108C62.1661 178.406 62.5177 178.122 62.5933 177.776L63.8786 171.903C63.9542 171.558 63.7274 171.274 63.3683 171.274L63.3721 171.287ZM61.8448 181.056L59.7656 190.579L61.8448 181.056ZM41.4572 212.612L47.245 212.658C45.5362 212.658 42.7142 212.626 41.4553 212.611L41.4572 212.612Z" fill="white"/>
<path d="M53.4561 181.056L52.4619 185.456L53.4561 181.056ZM61.3382 180.426H54.2632C54.0819 180.433 53.9076 180.498 53.7657 180.612C53.6239 180.725 53.5221 180.88 53.475 181.056L51.4903 189.856L51.2143 191.119L49.3242 200.103C49.2305 200.522 49.117 200.937 48.9839 201.345C48.9839 201.345 47.6608 205.277 45.4417 205.233L43.2396 205.192C43.059 205.197 42.8847 205.259 42.742 205.37C42.5992 205.481 42.4955 205.634 42.4458 205.808L40.9809 211.975C40.9577 212.051 40.9531 212.131 40.9673 212.208C40.9815 212.286 41.0142 212.359 41.0626 212.421C41.1109 212.483 41.1736 212.533 41.2453 212.566C41.3169 212.599 41.3954 212.614 41.4742 212.611L47.2638 212.658C52.8134 212.658 55.7376 209.582 57.6145 200.736L61.8674 181.078C61.943 180.733 61.7124 180.449 61.3571 180.449L61.3382 180.426ZM161.824 200.723C161.469 200.723 161.257 200.44 161.314 200.092L166.635 175.168L161.824 200.723ZM169.219 200.09L171.374 189.452L169.219 200.09Z" fill="white"/>
<path d="M161.391 200.408C161.348 200.234 161.373 199.808 161.448 199.462L163.973 187.63L161.312 200.092C161.236 200.44 161.467 200.723 161.822 200.723H162.469C162.114 200.723 161.433 200.581 161.391 200.408ZM168.801 200.581C168.608 200.657 168.158 200.723 167.803 200.723H168.449C168.63 200.716 168.803 200.65 168.943 200.536C169.083 200.422 169.181 200.265 169.224 200.09L169.353 199.459C169.283 199.806 168.975 200.504 168.786 200.581H168.801ZM170.294 194.771L171.245 190.076L170.294 194.771ZM191.29 176.837L191.583 178.047C191.665 178.393 191.44 178.674 191.086 178.676" fill="white"/>
<path d="M169.347 199.459L170.292 194.771L169.347 199.459ZM191.001 175.574L191.29 176.814L191.001 175.574ZM171.245 190.076L171.506 188.821L172.521 184.067L171.372 189.45L171.245 190.074V190.076ZM166.722 174.758L166.501 175.797L163.975 187.63L166.637 175.168L166.722 174.76V174.758Z" fill="white"/>
<path d="M191.585 178.047L191.292 176.837L190.858 174.947C190.283 172.716 188.597 171.425 184.934 171.425L168.073 171.414C167.892 171.42 167.719 171.485 167.578 171.599C167.438 171.713 167.338 171.87 167.295 172.045L167.034 173.28L166.656 175.145L161.469 199.44C161.393 199.788 161.369 200.196 161.412 200.385C161.456 200.574 162.136 200.701 162.49 200.701H167.82C168.175 200.701 168.623 200.636 168.818 200.559C169.013 200.481 169.298 199.803 169.385 199.436L171.408 189.429L173.572 179.29C173.647 178.944 173.997 178.663 174.351 178.661L191.122 178.653C191.476 178.653 191.701 178.37 191.619 178.024L191.585 178.047ZM213.177 167.097L211.886 167.102H206.518C206.321 167.114 206.13 167.168 205.955 167.26C205.781 167.352 205.629 167.48 205.508 167.635L193.638 185.025C193.438 185.318 193.209 185.275 193.128 184.931L192.254 181.099C192.207 180.924 192.106 180.768 191.964 180.655C191.822 180.542 191.648 180.477 191.466 180.47H183.836C183.48 180.47 183.269 180.748 183.367 181.09L186.769 193.07C186.867 193.41 186.873 193.971 186.788 194.317L185.276 200.115C185.25 200.189 185.243 200.268 185.256 200.346C185.269 200.424 185.301 200.497 185.349 200.559C185.397 200.621 185.46 200.67 185.532 200.702C185.604 200.734 185.683 200.747 185.762 200.74H193.322C193.678 200.74 194.041 200.457 194.128 200.116L195.64 194.319C195.758 193.911 195.944 193.525 196.188 193.178L215.479 167.598C215.693 167.314 215.578 167.084 215.222 167.087L213.2 167.101L213.177 167.097ZM152.547 182.099C152.502 182.477 152.147 182.761 151.791 182.761H142.113C141.779 182.761 141.609 182.534 141.66 182.25L141.667 182.199L141.711 182.035C142.656 179.578 144.518 177.965 148.054 177.965C152.037 177.965 152.814 179.912 152.544 182.099H152.547ZM149.708 170.932C137.29 170.932 134.347 178.47 132.697 186.078C131.045 193.833 131.188 201.086 144.038 201.086H146.075L147.644 201.08L155.821 201.031C156.001 201.023 156.172 200.957 156.311 200.843C156.45 200.729 156.548 200.573 156.59 200.398L157.832 194.327C157.904 193.979 157.672 193.695 157.316 193.695H145.763C141.17 193.695 139.804 192.474 140.306 188.885H158.774C159.076 188.879 159.35 188.696 159.458 188.409C159.477 188.358 159.496 188.303 159.503 188.248C162.244 177.909 161.458 170.94 149.712 170.94L149.708 170.932ZM91.0103 182.058L90.8364 182.676C90.8364 182.678 89.4415 187.62 89.4415 187.62L88.0465 192.561C87.9886 192.736 87.8791 192.888 87.7327 192.999C87.5862 193.109 87.4096 193.173 87.2262 193.181H79.8431C74.2444 193.181 72.8815 188.802 74.2444 182.343C75.6053 175.737 78.2799 171.629 83.7898 171.214C91.3203 170.647 92.8249 175.943 91.0103 182.056V182.058ZM96.0723 192.803C96.0723 192.803 99.5502 184.354 100.344 179.472C101.421 172.937 98.1515 163.462 85.5156 163.462C72.9515 163.462 67.4964 172.508 65.4153 182.364C63.3361 192.268 66.0617 200.956 78.5521 200.888L97.6165 200.818C97.7993 200.809 97.9749 200.744 98.1194 200.632C98.2639 200.519 98.3701 200.365 98.4236 200.19L100.03 194.07C100.056 193.996 100.063 193.916 100.051 193.839C100.039 193.761 100.007 193.688 99.9591 193.626C99.9113 193.563 99.8487 193.514 99.7769 193.482C99.7052 193.45 99.6266 193.436 99.5483 193.442L96.473 193.423C96.1705 193.421 96.0004 193.227 96.0345 192.97C96.042 192.922 96.0534 192.875 96.0723 192.826V192.803Z" fill="white"/>
<path d="M158.267 187.15C158.267 187.384 158.078 187.573 157.844 187.573C157.609 187.573 157.42 187.384 157.42 187.15C157.42 186.915 157.609 186.726 157.844 186.726C158.078 186.726 158.267 186.915 158.267 187.15Z" fill="white"/>
<defs>
<linearGradient id="paint0_linear_7_245" x1="0" y1="0" x2="256" y2="256" gradientUnits="userSpaceOnUse">
<stop stop-color="#FF5C00"/>
<stop offset="1" stop-color="#FF0F00"/>
</linearGradient>
</defs>
</svg>

        </g>
         
        <g transform="translate(1500, 0)">
          <svg width="256" height="256" viewBox="0 0 256 256" fill="none" xmlns="http://www.w3.org/2000/svg">
<rect width="256" height="256" rx="60" fill="white"/>
<path fill-rule="evenodd" clip-rule="evenodd" d="M93.213 222.94L50 48L223.23 97.874L93.213 222.94Z" stroke="black" stroke-width="4" stroke-miterlimit="10" stroke-linejoin="round"/>
<path fill-rule="evenodd" clip-rule="evenodd" d="M136.583 72.9419L158.174 160.438L71.6071 135.493L136.583 72.9419Z" stroke="black" stroke-width="4" stroke-miterlimit="10" stroke-linejoin="round"/>
<path fill-rule="evenodd" clip-rule="evenodd" d="M115.103 147.36L104.379 103.895L147.387 116.241L115.103 147.36Z" stroke="black" stroke-width="4" stroke-miterlimit="10" stroke-linejoin="round"/>
<path fill-rule="evenodd" clip-rule="evenodd" d="M93.6509 60.4829L104.375 103.948L61.3669 91.6019L93.6509 60.4829Z" stroke="black" stroke-width="4" stroke-miterlimit="10" stroke-linejoin="round"/>
<path fill-rule="evenodd" clip-rule="evenodd" d="M179.663 85.2598L190.387 128.725L147.379 116.379L179.663 85.2598Z" stroke="black" stroke-width="4" stroke-miterlimit="10" stroke-linejoin="round"/>
<path fill-rule="evenodd" clip-rule="evenodd" d="M115.108 147.39L125.832 190.855L82.824 178.509L115.108 147.39Z" stroke="black" stroke-width="4" stroke-miterlimit="10" stroke-linejoin="round"/>
</svg>

        </g>
         
        <g transform="translate(1800, 0)">
          <svg xmlns="http://www.w3.org/2000/svg" width="256" height="256" fill="none" viewBox="0 0 256 256"><rect width="256" height="256" fill="#2B2E3A" rx="60"/><path fill="#9FEAF9" d="M100.768 70.772C74.763 66.036 54.201 70.993 46.006 85.187C39.891 95.779 41.639 109.822 50.246 124.833C50.4159 125.145 50.6464 125.419 50.924 125.641C51.2015 125.862 51.5204 126.026 51.8621 126.123C52.2038 126.219 52.5614 126.247 52.9138 126.203C53.2662 126.16 53.6064 126.047 53.9144 125.87C54.2225 125.693 54.4921 125.457 54.7076 125.175C54.923 124.892 55.0799 124.57 55.1691 124.226C55.2583 123.883 55.278 123.525 55.2269 123.173C55.1759 122.822 55.0552 122.484 54.872 122.18C47.12 108.658 45.611 96.539 50.625 87.854C57.433 76.063 75.773 71.641 99.812 76.019C100.503 76.134 101.211 75.9727 101.784 75.5699C102.357 75.1671 102.748 74.5552 102.874 73.8663C102.999 73.1773 102.849 72.4666 102.455 71.8877C102.061 71.3088 101.455 70.908 100.768 70.772V70.772ZM63.769 143.079C74.284 154.634 87.945 165.473 103.525 174.467C141.248 196.247 181.408 202.068 201.2 188.573C201.496 188.379 201.75 188.127 201.948 187.833C202.146 187.54 202.283 187.209 202.352 186.862C202.421 186.515 202.42 186.157 202.349 185.81C202.278 185.463 202.139 185.134 201.939 184.841C201.74 184.548 201.484 184.298 201.187 184.106C200.89 183.913 200.557 183.782 200.208 183.719C199.86 183.656 199.502 183.663 199.157 183.74C198.811 183.817 198.484 183.962 198.195 184.167C180.481 196.245 142.333 190.715 106.192 169.849C91.078 161.123 77.849 150.627 67.714 139.489C67.4787 139.228 67.1942 139.017 66.877 138.866C66.5597 138.716 66.2159 138.63 65.8652 138.613C65.5145 138.595 65.1639 138.648 64.8334 138.766C64.5029 138.885 64.1991 139.067 63.9395 139.304C63.6798 139.54 63.4693 139.825 63.3202 140.143C63.171 140.461 63.086 140.805 63.0702 141.156C63.0544 141.507 63.1079 141.857 63.2278 142.187C63.3478 142.517 63.5316 142.82 63.769 143.079V143.079Z"/><path fill="#9FEAF9" d="M194.886 139.835C211.914 119.719 217.859 99.487 209.681 85.323C203.664 74.9 190.943 69.397 174.036 69.177C173.335 69.178 172.663 69.4548 172.165 69.9474C171.667 70.44 171.382 71.1089 171.373 71.8095C171.364 72.5101 171.631 73.1862 172.116 73.6915C172.602 74.1968 173.267 74.4908 173.967 74.51C189.172 74.708 200.132 79.449 205.063 87.99C211.855 99.755 206.553 117.797 190.815 136.389C190.584 136.656 190.408 136.965 190.298 137.301C190.188 137.636 190.145 137.989 190.172 138.341C190.199 138.693 190.296 139.035 190.457 139.349C190.617 139.664 190.839 139.943 191.108 140.171C191.377 140.398 191.689 140.571 192.025 140.677C192.362 140.784 192.716 140.823 193.067 140.791C193.418 140.76 193.76 140.66 194.072 140.495C194.385 140.331 194.661 140.107 194.886 139.835V139.835ZM151.125 71.66C135.729 74.959 119.341 81.409 103.603 90.495C64.661 112.978 39.258 146.131 42.786 170.17C42.833 170.52 42.949 170.857 43.1273 171.161C43.3055 171.466 43.5425 171.732 43.8244 171.945C44.1063 172.157 44.4276 172.311 44.7696 172.399C45.1116 172.486 45.4675 172.505 45.8167 172.453C46.1659 172.402 46.5015 172.282 46.8039 172.1C47.1064 171.918 47.3697 171.678 47.5787 171.393C47.7876 171.109 47.938 170.786 48.0211 170.443C48.1043 170.1 48.1185 169.744 48.063 169.395C44.93 148.051 69.01 116.626 106.27 95.114C121.537 86.299 137.405 80.054 152.242 76.875C152.589 76.8066 152.919 76.6697 153.213 76.4724C153.507 76.2751 153.759 76.0212 153.953 75.7257C154.148 75.4302 154.282 75.0988 154.347 74.751C154.413 74.4032 154.408 74.0458 154.334 73.6998C154.26 73.3537 154.118 73.0259 153.916 72.7353C153.713 72.4448 153.456 72.1974 153.157 72.0075C152.858 71.8177 152.525 71.6892 152.176 71.6295C151.827 71.5699 151.47 71.5802 151.125 71.66Z"/><path fill="#9FEAF9" d="M88.036 186.835C96.94 211.695 111.505 227.002 127.883 227.002C139.828 227.002 150.879 218.859 159.497 204.524C159.684 204.224 159.808 203.889 159.865 203.54C159.921 203.191 159.907 202.835 159.824 202.491C159.741 202.147 159.591 201.824 159.381 201.539C159.172 201.254 158.909 201.013 158.606 200.831C158.303 200.649 157.966 200.529 157.617 200.478C157.267 200.427 156.91 200.446 156.568 200.534C156.226 200.622 155.904 200.777 155.622 200.99C155.34 201.203 155.104 201.471 154.926 201.776C147.181 214.659 137.668 221.668 127.883 221.668C114.278 221.668 101.287 208.016 93.058 185.038C92.9453 184.702 92.7666 184.391 92.5323 184.125C92.2981 183.858 92.013 183.641 91.6938 183.486C91.3746 183.331 91.0277 183.241 90.6734 183.222C90.3191 183.203 89.9645 183.255 89.6304 183.374C89.2963 183.494 88.9895 183.679 88.7278 183.918C88.4662 184.158 88.2549 184.448 88.1065 184.77C87.9582 185.092 87.8756 185.441 87.8636 185.795C87.8517 186.15 87.9106 186.504 88.037 186.835H88.036ZM169.358 181.972C173.968 167.244 176.443 150.254 176.443 132.549C176.443 88.3701 160.98 50.2861 138.956 40.5071C138.313 40.2376 137.589 40.2309 136.941 40.4885C136.293 40.746 135.771 41.2473 135.488 41.8848C135.205 42.5223 135.183 43.2454 135.427 43.899C135.671 44.5525 136.161 45.0846 136.792 45.3811C156.435 54.1041 171.109 90.2471 171.109 132.549C171.109 149.726 168.712 166.179 164.269 180.379C164.159 180.715 164.116 181.069 164.144 181.422C164.172 181.774 164.269 182.117 164.431 182.432C164.592 182.746 164.815 183.025 165.085 183.253C165.356 183.48 165.669 183.652 166.006 183.757C166.343 183.863 166.698 183.9 167.05 183.867C167.402 183.835 167.744 183.732 168.056 183.566C168.368 183.4 168.644 183.174 168.867 182.9C169.091 182.626 169.258 182.311 169.359 181.972H169.358ZM219.582 179.36C219.582 172.311 213.868 166.597 206.819 166.597C199.77 166.597 194.056 172.311 194.056 179.36C194.056 186.409 199.77 192.123 206.819 192.123C213.868 192.123 219.582 186.409 219.582 179.36ZM214.249 179.36C214.249 180.336 214.057 181.302 213.683 182.203C213.31 183.105 212.763 183.924 212.073 184.614C211.383 185.304 210.564 185.851 209.662 186.225C208.761 186.598 207.795 186.79 206.819 186.79C205.843 186.79 204.877 186.598 203.976 186.225C203.074 185.851 202.255 185.304 201.565 184.614C200.875 183.924 200.328 183.105 199.955 182.203C199.581 181.302 199.389 180.336 199.389 179.36C199.389 177.39 200.172 175.5 201.565 174.106C202.959 172.713 204.848 171.93 206.819 171.93C208.79 171.93 210.679 172.713 212.073 174.106C213.466 175.5 214.249 177.39 214.249 179.36ZM48.763 192.123C55.813 192.123 61.527 186.409 61.527 179.36C61.527 172.311 55.812 166.597 48.763 166.597C41.715 166.597 36 172.311 36 179.36C36 186.409 41.715 192.123 48.763 192.123ZM48.763 186.79C46.7924 186.79 44.9026 186.007 43.5092 184.614C42.1158 183.221 41.333 181.331 41.333 179.36C41.333 177.39 42.1158 175.5 43.5092 174.106C44.9026 172.713 46.7924 171.93 48.763 171.93C50.7336 171.93 52.6234 172.713 54.0168 174.106C55.4102 175.5 56.193 177.39 56.193 179.36C56.193 181.331 55.4102 183.221 54.0168 184.614C52.6234 186.007 50.7336 186.79 48.763 186.79V186.79Z"/><path fill="#9FEAF9" d="M127.883 53.526C134.932 53.526 140.646 47.812 140.646 40.763C140.646 33.714 134.932 28 127.883 28C120.834 28 115.12 33.714 115.12 40.763C115.12 47.812 120.834 53.526 127.883 53.526V53.526ZM127.883 48.193C125.912 48.193 124.023 47.4102 122.629 46.0168C121.236 44.6234 120.453 42.7336 120.453 40.763C120.453 38.7924 121.236 36.9026 122.629 35.5092C124.023 34.1158 125.912 33.333 127.883 33.333C129.854 33.333 131.743 34.1158 133.137 35.5092C134.53 36.9026 135.313 38.7924 135.313 40.763C135.313 42.7336 134.53 44.6234 133.137 46.0168C131.743 47.4102 129.854 48.193 127.883 48.193V48.193ZM129.832 141.575C124.847 142.652 119.936 139.484 118.857 134.499C118.34 132.105 118.795 129.604 120.122 127.546C121.449 125.488 123.539 124.041 125.933 123.523C130.918 122.446 135.829 125.614 136.909 130.599C137.986 135.584 134.818 140.496 129.832 141.575Z"/></svg>
        </g>
         
        <g transform="translate(2100, 0)">
          <svg width="256" height="256" viewBox="0 0 256 256" fill="none" xmlns="http://www.w3.org/2000/svg">
<rect width="256" height="256" rx="60" fill="#F4F2ED"/>
<path d="M104.028 122.58C95.08 117.414 88.087 109.44 84.1332 99.895C80.1794 90.3496 79.4857 79.7664 82.1598 69.7866C84.8339 59.8069 90.7262 50.9884 98.923 44.6988C107.12 38.4092 117.163 35 127.495 35C137.826 35 147.87 38.4092 156.066 44.6988C164.263 50.9884 170.155 59.8069 172.829 69.7866C175.504 79.7664 174.81 90.3496 170.856 99.895C166.902 109.44 159.909 117.414 150.962 122.58L136.831 98.1043C140.39 96.0492 143.172 92.8769 144.745 89.0795C146.318 85.282 146.594 81.0717 145.53 77.1015C144.466 73.1312 142.122 69.623 138.861 67.1208C135.6 64.6186 131.605 63.2623 127.495 63.2623C123.384 63.2623 119.389 64.6186 116.128 67.1208C112.867 69.623 110.523 73.1312 109.459 77.1015C108.395 81.0717 108.671 85.282 110.244 89.0795C111.817 92.8769 114.599 96.0492 118.159 98.1043L104.028 122.58Z" fill="#FF0101"/>
<path d="M204.533 133.943C213.481 139.109 220.474 147.083 224.427 156.628C228.381 166.173 229.075 176.756 226.401 186.736C223.727 196.716 217.834 205.534 209.638 211.824C201.441 218.114 191.398 221.523 181.066 221.523C170.734 221.523 160.691 218.114 152.494 211.824C144.297 205.534 138.405 196.716 135.731 186.736C133.057 176.756 133.751 166.173 137.704 156.628C141.658 147.083 148.651 139.109 157.599 133.943L171.73 158.419C168.17 160.474 165.388 163.646 163.815 167.443C162.242 171.241 161.967 175.451 163.03 179.421C164.094 183.392 166.438 186.9 169.699 189.402C172.96 191.904 176.956 193.261 181.066 193.261C185.176 193.261 189.172 191.904 192.433 189.402C195.693 186.9 198.038 183.392 199.101 179.421C200.165 175.451 199.889 171.241 198.316 167.443C196.743 163.646 193.961 160.474 190.402 158.419L204.533 133.943Z" fill="#0101FF"/>
<path d="M121.868 174.589C121.868 184.921 118.459 194.964 112.169 203.16C105.88 211.357 97.0613 217.25 87.0816 219.924C77.1018 222.598 66.5186 221.904 56.9733 217.95C47.4279 213.996 39.4539 207.003 34.288 198.056C29.1221 189.108 27.053 178.706 28.4016 168.463C29.7502 158.219 34.4411 148.707 41.7467 141.401C49.0524 134.096 58.5646 129.405 68.808 128.056C79.0514 126.708 89.4536 128.777 98.4012 133.943L84.27 158.419C80.7104 156.363 76.5721 155.54 72.497 156.077C68.4219 156.613 64.6376 158.479 61.7312 161.386C58.8248 164.292 56.9586 168.077 56.4221 172.152C55.8856 176.227 56.7088 180.365 58.7639 183.925C60.8191 187.484 63.9914 190.266 67.7888 191.839C71.5862 193.412 75.7965 193.688 79.7668 192.624C83.737 191.561 87.2453 189.216 89.7475 185.955C92.2496 182.695 93.6059 178.699 93.6059 174.589H121.868Z" fill="#01FF01"/>
</svg>

        </g>
         
        <g transform="translate(2400, 0)">
          <svg width="256" height="256" viewBox="0 0 256 256" fill="none" xmlns="http://www.w3.org/2000/svg">
<rect width="256" height="256" rx="60" fill="#F4F2ED"/>
<path d="M180.975 90.4153L167.567 103.824C189.508 125.765 189.508 161.115 167.567 182.65C145.625 204.591 110.275 204.591 88.7404 182.65C66.7991 160.709 66.7991 125.359 88.7404 103.824L123.481 69.0835L128.357 64.2077V38L75.9413 90.4153C46.6862 119.67 46.6862 166.804 75.9413 196.059C105.196 225.314 152.33 225.314 180.975 196.059C210.23 166.6 210.23 119.67 180.975 90.4153Z" fill="#EE4C2C"/>
<path d="M154.768 87.1646C160.153 87.1646 164.519 82.7986 164.519 77.4129C164.519 72.0272 160.153 67.6611 154.768 67.6611C149.382 67.6611 145.016 72.0272 145.016 77.4129C145.016 82.7986 149.382 87.1646 154.768 87.1646Z" fill="#EE4C2C"/>
</svg>

        </g>
        
  </svg>
  