<svg width="480" height="195" viewBox="0 0 480 195" xmlns="http://www.w3.org/2000/svg"
  font-family="Segoe UI, Helvetica, Arial, sans-serif" role="img" aria-label="uzuchan's GitHub stats: rank C">
  <text x="25" y="34" font-size="18" font-weight="700" fill="#6f8ff7">uzuchan's GitHub Stats</text>
  <g transform="translate(26,57) scale(0.7)" fill="#6f8ff7" stroke="#6f8ff7"><path d="M12 1.5l3.1 6.7 7.2.8-5.4 4.9 1.5 7.1L12 17.4 5.6 21l1.5-7.1L1.7 9l7.2-.8z"/></g>
  <text x="54" y="70" font-size="14" fill="#8b949e">Total Stars Earned:</text>
  <text x="300" y="70" font-size="14" font-weight="700" text-anchor="end" fill="#6f8ff7">9</text>
  <g transform="translate(26,81) scale(0.7)" fill="#6f8ff7" stroke="#6f8ff7"><circle cx="12" cy="12" r="4.2" fill="none" stroke-width="2.6"/><line x1="0.5" y1="12" x2="7.8" y2="12" stroke-width="2.6"/><line x1="16.2" y1="12" x2="23.5" y2="12" stroke-width="2.6"/></g>
  <text x="54" y="94" font-size="14" fill="#8b949e">Total Commits:</text>
  <text x="300" y="94" font-size="14" font-weight="700" text-anchor="end" fill="#6f8ff7">168</text>
  <g transform="translate(26,105) scale(0.7)" fill="#6f8ff7" stroke="#6f8ff7"><circle cx="6.5" cy="5.5" r="3" fill="none" stroke-width="2.4"/><circle cx="6.5" cy="18.5" r="3" fill="none" stroke-width="2.4"/><circle cx="17.5" cy="18.5" r="3" fill="none" stroke-width="2.4"/><line x1="6.5" y1="8.5" x2="6.5" y2="15.5" stroke-width="2.4"/><path d="M11 5.5h4a2.5 2.5 0 0 1 2.5 2.5v7.5" fill="none" stroke-width="2.4"/></g>
  <text x="54" y="118" font-size="14" fill="#8b949e">Total PRs:</text>
  <text x="300" y="118" font-size="14" font-weight="700" text-anchor="end" fill="#6f8ff7">2</text>
  <g transform="translate(26,129) scale(0.7)" fill="#6f8ff7" stroke="#6f8ff7"><circle cx="12" cy="12" r="9.5" fill="none" stroke-width="2.6"/><circle cx="12" cy="12" r="3.2"/></g>
  <text x="54" y="142" font-size="14" fill="#8b949e">Total Issues:</text>
  <text x="300" y="142" font-size="14" font-weight="700" text-anchor="end" fill="#6f8ff7">1</text>
  <g transform="translate(26,153) scale(0.7)" fill="#6f8ff7" stroke="#6f8ff7"><path d="M5 2.5h13a1.5 1.5 0 0 1 1.5 1.5v16a1.5 1.5 0 0 1-1.5 1.5H6.5A2.5 2.5 0 0 1 4 19V4a1.5 1.5 0 0 1 1-1.5z" fill="none" stroke-width="2.2"/><line x1="8.2" y1="2.5" x2="8.2" y2="21.5" stroke-width="2.2"/></g>
  <text x="54" y="166" font-size="14" fill="#8b949e">Contributed to (last year):</text>
  <text x="300" y="166" font-size="14" font-weight="700" text-anchor="end" fill="#6f8ff7">0</text>
  <circle cx="400" cy="105" r="42" fill="none" stroke="#8b949e" stroke-opacity="0.25" stroke-width="6"/>
  <circle cx="400" cy="105" r="42" fill="none" stroke="#6f8ff7" stroke-width="6" stroke-linecap="round"
          stroke-dasharray="20.7 263.9" transform="rotate(-90 400 105)"/>
  <text x="400" y="105" text-anchor="middle" dominant-baseline="central" font-size="28" font-weight="800" fill="#6f8ff7">C</text>
</svg>
