<svg width="758" height="130" viewBox="0 0 758 130"
  xmlns="http://www.w3.org/2000/svg" role="img" aria-label="uzuchan's trophies">
  <g transform="translate(0,0)">
    <rect x="1" y="1" width="116" height="128" rx="10"
          fill="none" stroke="#8b949e" stroke-opacity="0.35" stroke-width="1.5"/>
    <g transform="translate(47,14)" fill="#8b949e" stroke="#8b949e">
      <path d="M12 1.5l3.1 6.7 7.2.8-5.4 4.9 1.5 7.1L12 17.4 5.6 21l1.5-7.1L1.7 9l7.2-.8z"/>
    </g>
    <text x="59" y="68" text-anchor="middle"
          font-family="Segoe UI, Helvetica, Arial, sans-serif"
          font-size="26" font-weight="800" fill="#8b949e">C</text>
    <text x="59" y="92" text-anchor="middle"
          font-family="Segoe UI, Helvetica, Arial, sans-serif"
          font-size="12.5" font-weight="600" fill="#8b949e">Stars</text>
    <text x="59" y="113" text-anchor="middle"
          font-family="Segoe UI, Helvetica, Arial, sans-serif"
          font-size="14" font-weight="700" fill="#6f8ff7">1</text>
  </g>
  <g transform="translate(128,0)">
    <rect x="1" y="1" width="116" height="128" rx="10"
          fill="none" stroke="#8b949e" stroke-opacity="0.35" stroke-width="1.5"/>
    <g transform="translate(47,14)" fill="#9b7bf7" stroke="#9b7bf7">
      <circle cx="12" cy="12" r="4.2" fill="none" stroke-width="2.6"/><line x1="0.5" y1="12" x2="7.8" y2="12" stroke-width="2.6"/><line x1="16.2" y1="12" x2="23.5" y2="12" stroke-width="2.6"/>
    </g>
    <text x="59" y="68" text-anchor="middle"
          font-family="Segoe UI, Helvetica, Arial, sans-serif"
          font-size="26" font-weight="800" fill="#9b7bf7">A</text>
    <text x="59" y="92" text-anchor="middle"
          font-family="Segoe UI, Helvetica, Arial, sans-serif"
          font-size="12.5" font-weight="600" fill="#8b949e">Commits</text>
    <text x="59" y="113" text-anchor="middle"
          font-family="Segoe UI, Helvetica, Arial, sans-serif"
          font-size="14" font-weight="700" fill="#6f8ff7">70</text>
  </g>
  <g transform="translate(256,0)">
    <rect x="1" y="1" width="116" height="128" rx="10"
          fill="none" stroke="#8b949e" stroke-opacity="0.35" stroke-width="1.5"/>
    <g transform="translate(47,14)" fill="#8b949e" stroke="#8b949e">
      <circle cx="12" cy="7.5" r="4.5"/><path d="M3.5 21.5c0-4.7 3.8-8 8.5-8s8.5 3.3 8.5 8z"/>
    </g>
    <text x="59" y="68" text-anchor="middle"
          font-family="Segoe UI, Helvetica, Arial, sans-serif"
          font-size="26" font-weight="800" fill="#8b949e">C</text>
    <text x="59" y="92" text-anchor="middle"
          font-family="Segoe UI, Helvetica, Arial, sans-serif"
          font-size="12.5" font-weight="600" fill="#8b949e">Followers</text>
    <text x="59" y="113" text-anchor="middle"
          font-family="Segoe UI, Helvetica, Arial, sans-serif"
          font-size="14" font-weight="700" fill="#6f8ff7">0</text>
  </g>
  <g transform="translate(384,0)">
    <rect x="1" y="1" width="116" height="128" rx="10"
          fill="none" stroke="#8b949e" stroke-opacity="0.35" stroke-width="1.5"/>
    <g transform="translate(47,14)" fill="#c4a7ff" stroke="#c4a7ff">
      <path d="M5 2.5h13a1.5 1.5 0 0 1 1.5 1.5v16a1.5 1.5 0 0 1-1.5 1.5H6.5A2.5 2.5 0 0 1 4 19V4a1.5 1.5 0 0 1 1-1.5z" fill="none" stroke-width="2.2"/><line x1="8.2" y1="2.5" x2="8.2" y2="21.5" stroke-width="2.2"/>
    </g>
    <text x="59" y="68" text-anchor="middle"
          font-family="Segoe UI, Helvetica, Arial, sans-serif"
          font-size="26" font-weight="800" fill="#c4a7ff">AAA</text>
    <text x="59" y="92" text-anchor="middle"
          font-family="Segoe UI, Helvetica, Arial, sans-serif"
          font-size="12.5" font-weight="600" fill="#8b949e">Repositories</text>
    <text x="59" y="113" text-anchor="middle"
          font-family="Segoe UI, Helvetica, Arial, sans-serif"
          font-size="14" font-weight="700" fill="#6f8ff7">17</text>
  </g>
  <g transform="translate(512,0)">
    <rect x="1" y="1" width="116" height="128" rx="10"
          fill="none" stroke="#8b949e" stroke-opacity="0.35" stroke-width="1.5"/>
    <g transform="translate(47,14)" fill="#8b949e" stroke="#8b949e">
      <circle cx="6.5" cy="5.5" r="3" fill="none" stroke-width="2.4"/><circle cx="6.5" cy="18.5" r="3" fill="none" stroke-width="2.4"/><circle cx="17.5" cy="18.5" r="3" fill="none" stroke-width="2.4"/><line x1="6.5" y1="8.5" x2="6.5" y2="15.5" stroke-width="2.4"/><path d="M11 5.5h4a2.5 2.5 0 0 1 2.5 2.5v7.5" fill="none" stroke-width="2.4"/>
    </g>
    <text x="59" y="68" text-anchor="middle"
          font-family="Segoe UI, Helvetica, Arial, sans-serif"
          font-size="26" font-weight="800" fill="#8b949e">C</text>
    <text x="59" y="92" text-anchor="middle"
          font-family="Segoe UI, Helvetica, Arial, sans-serif"
          font-size="12.5" font-weight="600" fill="#8b949e">Pull Requests</text>
    <text x="59" y="113" text-anchor="middle"
          font-family="Segoe UI, Helvetica, Arial, sans-serif"
          font-size="14" font-weight="700" fill="#6f8ff7">2</text>
  </g>
  <g transform="translate(640,0)">
    <rect x="1" y="1" width="116" height="128" rx="10"
          fill="none" stroke="#8b949e" stroke-opacity="0.35" stroke-width="1.5"/>
    <g transform="translate(47,14)" fill="#8b949e" stroke="#8b949e">
      <circle cx="12" cy="12" r="9.5" fill="none" stroke-width="2.6"/><circle cx="12" cy="12" r="3.2"/>
    </g>
    <text x="59" y="68" text-anchor="middle"
          font-family="Segoe UI, Helvetica, Arial, sans-serif"
          font-size="26" font-weight="800" fill="#8b949e">C</text>
    <text x="59" y="92" text-anchor="middle"
          font-family="Segoe UI, Helvetica, Arial, sans-serif"
          font-size="12.5" font-weight="600" fill="#8b949e">Issues</text>
    <text x="59" y="113" text-anchor="middle"
          font-family="Segoe UI, Helvetica, Arial, sans-serif"
          font-size="14" font-weight="700" fill="#6f8ff7">1</text>
  </g>
</svg>
